<svg xmlns="http://www.w3.org/2000/svg" enable-background="new 0 0 24 24" viewBox="0 0 24 24" id="php"><path fill="#878EB7" d="M12,18.75c6.212,0,11.25-3.02,11.25-6.75c0-3.73-5.038-6.75-11.25-6.75S0.75,8.27,0.75,12C0.75,15.73,5.788,18.75,12,18.75z"></path><path d="M12,19.5c-6.729,0-12-3.294-12-7.5s5.271-7.5,12-7.5S24,7.794,24,12S18.729,19.5,12,19.5z M12,6C6.309,6,1.5,8.748,1.5,12s4.809,6,10.5,6s10.5-2.748,10.5-6S17.691,6,12,6z"></path><path d="M5.751 16c-.042 0-.085-.004-.128-.011-.408-.07-.683-.458-.612-.866l.966-5.625c.062-.36.374-.623.739-.623H8.04c.624 0 1.207.273 1.6.749.381.462.534 1.062.421 1.645L9.873 12.24c-.212 1.092-1.188 1.885-2.322 1.885H6.704l-.215 1.252C6.427 15.742 6.109 16 5.751 16zM6.962 12.625h.589c.417 0 .774-.282.85-.67l.188-.972c.038-.195-.05-.338-.105-.405-.106-.129-.268-.203-.442-.203H7.348L6.962 12.625zM15.653 16c-.042 0-.085-.004-.128-.011-.408-.07-.683-.458-.612-.866l.32-1.862c.001-.009.003-.019.005-.027l.642-3.735c.062-.36.374-.623.739-.623h1.324c.623 0 1.205.272 1.598.748.382.462.535 1.062.423 1.646l-.188.972c-.21 1.092-1.187 1.885-2.322 1.885h-.847l-.215 1.252C16.329 15.742 16.012 16 15.653 16zM16.864 12.625h.589c.418 0 .774-.281.85-.669l.188-.973c.037-.194-.051-.338-.106-.405-.106-.129-.268-.203-.441-.203h-.692L16.864 12.625zM11.064 14.125c-.042 0-.085-.004-.128-.011-.408-.07-.683-.458-.612-.866l.967-5.625c.07-.408.456-.676.866-.612.408.07.683.458.612.866l-.967 5.625C11.74 13.867 11.423 14.125 11.064 14.125z"></path><path d="M13.963,14.125c-0.036,0-0.073-0.003-0.11-0.008c-0.41-0.061-0.693-0.441-0.633-0.852l0.348-2.36l-0.081-0.062h-1.698c-0.414,0-0.75-0.336-0.75-0.75s0.336-0.75,0.75-0.75h1.698c0.465,0,0.903,0.2,1.205,0.548c0.294,0.341,0.425,0.789,0.36,1.231l-0.348,2.361C14.649,13.857,14.329,14.125,13.963,14.125z"></path></svg>